<svg data-v-0dd9719b="" version="1.0" xmlns="http://www.w3.org/2000/svg" xmlns:xlink="http://www.w3.org/1999/xlink" width="100%" height="100%" viewBox="0 0 340.000000 250.000000" preserveAspectRatio="xMidYMid meet" color-interpolation-filters="sRGB" style="margin: auto;">   <g data-v-0dd9719b="" fill="#1684ac" class="icon-text-wrapper icon-svg-group iconsvg" transform="translate(99.80000305175781,72.61510467529297)"><g class="iconsvg-imagesvg" transform="translate(40.19999694824219,0)"><g><rect fill="#1684ac" fill-opacity="0" stroke-width="2" x="0" y="0" width="60" height="56.36978579481398" class="image-rect"></rect> <svg filter="url(#colors9383493106)" x="0" y="0" width="60" height="56.36978579481398" filtersec="colorsf2292120661" class="image-svg-svg primary" style="overflow: visible;"><svg fill="#000000" xmlns="http://www.w3.org/2000/svg" xmlns:xlink="http://www.w3.org/1999/xlink" version="1.1" x="0px" y="0px" viewBox="-2 -1.032 36 34.064" enable-background="new 0 0 32 32" xml:space="preserve"><g display="none"><g display="inline"><polygon fill="#000000" stroke="#000000" stroke-miterlimit="10" points="14.568,15.699 0.5,29.489 0.5,16.278 14.568,2.511   "></polygon><polygon fill="#000000" stroke="#000000" stroke-miterlimit="10" points="31.5,16.301 17.432,2.511 17.432,15.722 31.5,29.489   "></polygon></g></g><g><path d="M0,31.032L15.339,16.14V0.97L0,15.838V31.032z M2,16.685l11.339-10.99v9.6L2,26.303V16.685z"></path><path d="M16.661,16.163L32,31.03V15.86L16.661,0.968V16.163z M18.661,5.697L30,16.706v9.6l-11.339-10.99V5.697z"></path></g><g display="none"><path display="inline" d="M1.522,29.348c4.553-4.461,9.106-8.921,13.659-13.382c0.103-0.061,0.174-0.141,0.203-0.236   c0.04-0.071,0.053-0.135,0.025-0.185c0-4.269,0-8.537,0-12.806c0-0.536-0.831-0.313-1.061-0.087   c-1.942,1.899-3.883,3.798-5.825,5.697C6.221,10.6,2.92,12.907,1.13,15.58c-2.097,3.133-0.67,9.846-0.67,13.681   C0.46,29.797,1.291,29.574,1.522,29.348z M2.609,15.351C5.975,11.233,10.335,7.649,14.24,3.95c0,3.906,0,7.812,0,11.718   c-4.214,4.128-8.428,8.257-12.641,12.385C1.415,23.968,0.437,18.008,2.609,15.351z"></path><path display="inline" d="M18.165,2.556c-0.239-0.234-1.118-0.128-1.118,0.299c0,3.096,0,6.193,0,9.289   c0,1.764-0.272,3.012,0.611,4.373c1.733,2.669,5.116,5.004,7.392,7.23c1.942,1.899,3.883,3.798,5.825,5.697   c0.239,0.234,1.118,0.128,1.118-0.299c0-4.296,0-8.593,0-12.889c0.022-0.067,0.019-0.135-0.048-0.2   C27.352,11.556,22.759,7.056,18.165,2.556z M19.253,16.553c-2.22-2.695-1.3-8.404-1.083-12.467   c4.219,4.134,8.439,8.268,12.658,12.401c0,3.804,0,7.608,0,11.412C26.937,24.215,22.623,20.644,19.253,16.553z"></path></g><g display="none"><g display="inline"><polygon fill="#000000" stroke="#000000" stroke-width="0.5" stroke-miterlimit="10" points="14.568,15.699 0.5,29.489 0.5,16.278     14.568,2.511   "></polygon><polygon fill="#000000" stroke="#000000" stroke-width="0.5" stroke-miterlimit="10" points="31.5,16.301 17.432,2.511     17.432,15.722 31.5,29.489   "></polygon></g></g><desc>Created with Snap</desc><defs></defs></svg></svg> <defs><filter id="colors9383493106"><feColorMatrix type="matrix" values="0 0 0 0 0.19921875  0 0 0 0 0.19921875  0 0 0 0 0.19921875  0 0 0 1 0" class="icon-fecolormatrix"></feColorMatrix></filter> <filter id="colorsf2292120661"><feColorMatrix type="matrix" values="0 0 0 0 0.99609375  0 0 0 0 0.99609375  0 0 0 0 0.99609375  0 0 0 1 0" class="icon-fecolormatrix"></feColorMatrix></filter> <filter id="colorsb8794515336"><feColorMatrix type="matrix" values="0 0 0 0 0  0 0 0 0 0  0 0 0 0 0  0 0 0 1 0" class="icon-fecolormatrix"></feColorMatrix></filter></defs></g></g> <g transform="translate(0,63.36978530883789)"><g data-gra="path-name" fill-rule="" class="tp-name iconsvg-namesvg"><g transform="scale(1)"><g><path d="M33 7.2L33 7.2 30 7.2Q28.25 7.2 27.03 5.98 25.8 4.75 25.8 3L25.8 3 25.8-15Q25.8-15.5 26.15-15.85 26.5-16.2 27-16.2 27.5-16.2 27.85-15.85 28.2-15.5 28.2-15L28.2-15 28.2 3Q28.2 3.75 28.73 4.28 29.25 4.8 30 4.8L30 4.8 33 4.8Q33.5 4.8 33.85 5.15 34.2 5.5 34.2 6 34.2 6.5 33.85 6.85 33.5 7.2 33 7.2ZM3-16.2L3-16.2 6-16.2Q7.75-16.2 8.97-14.98 10.2-13.75 10.2-12L10.2-12 10.2 6Q10.2 6.5 9.85 6.85 9.5 7.2 9 7.2 8.5 7.2 8.15 6.85 7.8 6.5 7.8 6L7.8 6 7.8-12Q7.8-12.75 7.28-13.28 6.75-13.8 6-13.8L6-13.8 3-13.8Q2.5-13.8 2.15-14.15 1.8-14.5 1.8-15 1.8-15.5 2.15-15.85 2.5-16.2 3-16.2ZM24-25.2L24-25.2 30-25.2Q30.75-25.2 31.28-25.73 31.8-26.25 31.8-27L31.8-27 31.8-33Q31.8-33.5 32.15-33.85 32.5-34.2 33-34.2 33.5-34.2 33.85-33.85 34.2-33.5 34.2-33L34.2-33 34.2-27Q34.2-25.25 32.98-24.03 31.75-22.8 30-22.8L30-22.8 24-22.8Q23.5-22.8 23.15-23.15 22.8-23.5 22.8-24 22.8-24.5 23.15-24.85 23.5-25.2 24-25.2ZM3-25.2L3-25.2 15-25.2Q16.75-25.2 17.98-23.98 19.2-22.75 19.2-21L19.2-21 19.2 6Q19.2 6.5 18.85 6.85 18.5 7.2 18 7.2 17.5 7.2 17.15 6.85 16.8 6.5 16.8 6L16.8 6 16.8-21Q16.8-21.75 16.28-22.28 15.75-22.8 15-22.8L15-22.8 3-22.8Q2.5-22.8 2.15-23.15 1.8-23.5 1.8-24 1.8-24.5 2.15-24.85 2.5-25.2 3-25.2ZM3-34.2L3-34.2 18-34.2Q18.5-34.2 18.85-33.85 19.2-33.5 19.2-33 19.2-32.5 18.85-32.15 18.5-31.8 18-31.8L18-31.8 3-31.8Q2.5-31.8 2.15-32.15 1.8-32.5 1.8-33 1.8-33.5 2.15-33.85 2.5-34.2 3-34.2ZM54-16.8L46.1-16.8Q45.65-14.25 43.65-12.53 41.65-10.8 39-10.8L39-10.8Q38.5-10.8 38.15-11.15 37.8-11.5 37.8-12 37.8-12.5 38.15-12.85 38.5-13.2 39-13.2L39-13.2Q40.65-13.2 41.95-14.23 43.25-15.25 43.65-16.8L43.65-16.8 39-16.8Q38.5-16.8 38.15-17.15 37.8-17.5 37.8-18 37.8-18.5 38.15-18.85 38.5-19.2 39-19.2L39-19.2 45-19.2 52.8-19.2 52.8-22.8 42-22.8Q41.5-22.8 41.15-23.15 40.8-23.5 40.8-24 40.8-24.5 41.15-24.85 41.5-25.2 42-25.2L42-25.2 52.8-25.2 52.8-28.8 42-28.8Q41.5-28.8 41.15-29.15 40.8-29.5 40.8-30 40.8-30.5 41.15-30.85 41.5-31.2 42-31.2L42-31.2 52.8-31.2 52.8-33Q52.8-33.5 53.15-33.85 53.5-34.2 54-34.2 54.5-34.2 54.85-33.85 55.2-33.5 55.2-33L55.2-33 55.2-31.2 66-31.2Q66.5-31.2 66.85-30.85 67.2-30.5 67.2-30 67.2-29.5 66.85-29.15 66.5-28.8 66-28.8L66-28.8 55.2-28.8 55.2-25.2 66-25.2Q66.5-25.2 66.85-24.85 67.2-24.5 67.2-24 67.2-23.5 66.85-23.15 66.5-22.8 66-22.8L66-22.8 55.2-22.8 55.2-19.2 63-19.2 69-19.2Q69.5-19.2 69.85-18.85 70.2-18.5 70.2-18 70.2-17.5 69.85-17.15 69.5-16.8 69-16.8L69-16.8 64.35-16.8Q64.75-15.25 66.05-14.23 67.35-13.2 69-13.2L69-13.2Q69.5-13.2 69.85-12.85 70.2-12.5 70.2-12 70.2-11.5 69.85-11.15 69.5-10.8 69-10.8L69-10.8Q66.35-10.8 64.35-12.53 62.35-14.25 61.9-16.8L61.9-16.8 54-16.8ZM64.2 0L64.2 0 64.2 6Q64.2 6.5 63.85 6.85 63.5 7.2 63 7.2 62.5 7.2 62.15 6.85 61.8 6.5 61.8 6L61.8 6 61.8 0Q61.8-0.5 62.15-0.85 62.5-1.2 63-1.2 63.5-1.2 63.85-0.85 64.2-0.5 64.2 0ZM46.2 0L46.2 0 46.2 6Q46.2 6.5 45.85 6.85 45.5 7.2 45 7.2 44.5 7.2 44.15 6.85 43.8 6.5 43.8 6L43.8 6 43.8 0Q43.8-0.5 44.15-0.85 44.5-1.2 45-1.2 45.5-1.2 45.85-0.85 46.2-0.5 46.2 0ZM49.2-12L49.2-12 49.2-6Q49.2-5.5 48.85-5.15 48.5-4.8 48-4.8 47.5-4.8 47.15-5.15 46.8-5.5 46.8-6L46.8-6 46.8-12Q46.8-12.5 47.15-12.85 47.5-13.2 48-13.2 48.5-13.2 48.85-12.85 49.2-12.5 49.2-12ZM55.2-15L55.2-7.2 57-7.2Q57.75-7.2 58.28-7.73 58.8-8.25 58.8-9L58.8-9 58.8-12Q58.8-12.5 59.15-12.85 59.5-13.2 60-13.2 60.5-13.2 60.85-12.85 61.2-12.5 61.2-12L61.2-12 61.2-9Q61.2-7.25 59.98-6.03 58.75-4.8 57-4.8L57-4.8 55.2-4.8 55.2 6Q55.2 6.5 54.85 6.85 54.5 7.2 54 7.2 53.5 7.2 53.15 6.85 52.8 6.5 52.8 6L52.8 6 52.8-6 52.8-15Q52.8-15.5 53.15-15.85 53.5-16.2 54-16.2 54.5-16.2 54.85-15.85 55.2-15.5 55.2-15L55.2-15ZM105-25.8L100.2-25.8 100.2-18Q100.2-15.6 98.78-13.7 97.35-11.8 95.1-11.1L95.1-11.1Q97.2-9 97.2-6L97.2-6 97.2 6Q97.2 6.5 96.85 6.85 96.5 7.2 96 7.2 95.5 7.2 95.15 6.85 94.8 6.5 94.8 6L94.8 6 94.8-6Q94.8-8 93.4-9.4 92-10.8 90-10.8 88-10.8 86.6-9.4 85.2-8 85.2-6L85.2-6 85.2 6Q85.2 6.5 84.85 6.85 84.5 7.2 84 7.2 83.5 7.2 83.15 6.85 82.8 6.5 82.8 6L82.8 6 82.8-6Q82.8-9 84.9-11.1L84.9-11.1Q82.65-11.8 81.22-13.7 79.8-15.6 79.8-18L79.8-18 79.8-25.8 75-25.8Q74.5-25.8 74.15-26.15 73.8-26.5 73.8-27 73.8-27.5 74.15-27.85 74.5-28.2 75-28.2L75-28.2 81-28.2 88.8-28.2 88.8-33Q88.8-33.5 89.15-33.85 89.5-34.2 90-34.2 90.5-34.2 90.85-33.85 91.2-33.5 91.2-33L91.2-33 91.2-28.2 99-28.2 105-28.2Q105.5-28.2 105.85-27.85 106.2-27.5 106.2-27 106.2-26.5 105.85-26.15 105.5-25.8 105-25.8L105-25.8ZM87-13.2L90-13.2 93-13.2Q95-13.2 96.4-14.6 97.8-16 97.8-18L97.8-18 97.8-25.8 90-25.8 82.2-25.8 82.2-18Q82.2-16 83.6-14.6 85-13.2 87-13.2L87-13.2ZM142.2-33L142.2-33 142.2-27Q142.2-26.5 141.85-26.15 141.5-25.8 141-25.8 140.5-25.8 140.15-26.15 139.8-26.5 139.8-27L139.8-27 139.8-33Q139.8-33.5 140.15-33.85 140.5-34.2 141-34.2 141.5-34.2 141.85-33.85 142.2-33.5 142.2-33ZM136.2-24L136.2-13.05Q137.5-12.65 138.35-11.53 139.2-10.4 139.2-9L139.2-9 139.2 3Q139.2 3.5 138.85 3.85 138.5 4.2 138 4.2 137.5 4.2 137.15 3.85 136.8 3.5 136.8 3L136.8 3 136.8-9Q136.8-9.75 136.28-10.28 135.75-10.8 135-10.8L135-10.8 127.2-10.8 127.2 6Q127.2 6.5 126.85 6.85 126.5 7.2 126 7.2 125.5 7.2 125.15 6.85 124.8 6.5 124.8 6L124.8 6 124.8-10.8 114-10.8Q113.5-10.8 113.15-11.15 112.8-11.5 112.8-12 112.8-12.5 113.15-12.85 113.5-13.2 114-13.2L114-13.2 124.8-13.2 124.8-25.8 117-25.8Q116.5-25.8 116.15-26.15 115.8-26.5 115.8-27 115.8-27.5 116.15-27.85 116.5-28.2 117-28.2L117-28.2 124.8-28.2 124.8-33Q124.8-33.5 125.15-33.85 125.5-34.2 126-34.2 126.5-34.2 126.85-33.85 127.2-33.5 127.2-33L127.2-33 127.2-28.2 132-28.2Q133.75-28.2 134.97-26.98 136.2-25.75 136.2-24L136.2-24ZM127.2-25.8L127.2-13.2 133.8-13.2 133.8-24Q133.8-24.75 133.28-25.28 132.75-25.8 132-25.8L132-25.8 127.2-25.8Z" transform="translate(-1.7999999523162842, 34.20000076293945)"></path></g> <!----> <!----> <!----> <!----> <!----> <!----> <!----></g></g> <!----></g></g><defs v-gra="od"></defs></svg>