<svg width="900" height="383" version="1.1" xmlns="http://www.w3.org/2000/svg" desc="Created with imagetracer.js version 1.2.6" ><path fill="rgb(0,0,0)" stroke="rgb(0,0,0)" stroke-width="1" opacity="0" d="M 0 0 L 428 0.5 L 424 1 L 423 6 L 419 6 L 419 7.5 L 418 10 L 414 11 L 413 15 L 409 16 Q 411.1 21.2 406.5 20 L 404 21 Q 406.2 26.6 400.5 25 Q 398 26.2 399 30 Q 395.2 29 394 31.5 Q 395.8 36.8 390.5 35 Q 388 36.2 389 40 Q 385.2 39.3 384 42.5 L 384 45 L 380 45 L 380 46.5 L 379 50 L 375 50 L 375 51.5 L 374 55 L 370 56.5 L 369 60 L 365 61.5 L 363.5 65 L 360 66.5 L 358.5 70 L 355 71.5 L 353.5 75 L 350 76.5 Q 351.1 79.8 348.5 79 L 345 81.5 Q 346.1 84.8 343.5 84 L 341 85 L 340 90 L 336 92.5 L 335 95.5 L 335 198.5 Q 336.2 201.8 340 201 L 342.5 206 Q 347 207 348 204.5 L 349 201 Q 352.8 202 354 199.5 L 355.5 196 L 359 194.5 Q 357.9 191.2 360.5 192 L 364 189.5 L 365.5 186 Q 368.8 187.1 368 184.5 L 369 182 L 373 181 L 374 177 L 378 176 L 379.5 172 L 383 170.5 Q 381.3 165.3 386.5 167 Q 389 165.8 388 162 Q 391.8 163 393 160.5 Q 391.3 155.3 396.5 157 Q 399 155.8 398 152 Q 401.8 153 403 150.5 Q 401.3 145.3 406.5 147 Q 409 145.8 408 142 Q 411.8 143 413 140.5 Q 411.9 137.2 414.5 138 L 418 135.5 L 419.5 132 Q 422.8 133.1 422 130.5 L 423 128 L 427 127 L 428 123 L 432 122 Q 429.8 116.4 435.5 118 Q 438 116.8 437 113 Q 440.8 114 442 111.5 Q 440.3 106.7 444.5 108 L 447.5 106 L 450.5 112 L 453 113.5 L 454 117 L 458 118.5 L 459 122 L 463 123.5 L 464.5 127 L 468 128.5 L 470.5 132 L 473 133.5 L 474.5 137 L 478 138.5 L 479.5 142 Q 482.8 140.9 482 143.5 L 484.5 147 Q 487.8 145.9 487 148.5 L 489.5 152 Q 493.3 150.8 492 154.5 L 493 157 Q 498.2 154.9 497 159.5 Q 498.2 162.8 502 162 Q 501.3 165.8 504.5 167 L 507 167 L 507 171 L 508.5 171 L 512 172 L 513.5 176 L 517 177 L 518.5 181 L 522 182 L 523.5 186 L 527 187.5 L 528.5 191 L 532 192.5 L 533.5 196 Q 537.3 194.8 536 198.5 L 537 201 Q 540.8 200 542 202.5 Q 540.9 205.8 543.5 205 L 548.5 206 L 555 202 Q 553.5 198.3 556.5 199 L 558 197.5 L 558 98.5 L 555 95.5 Q 556 90 552.5 89 L 550 89 L 550 85 L 548.5 85 L 545 84 Q 546 80.2 543.5 79 L 540 79 L 540 75 L 538.5 75 L 535 72.5 Q 536.3 68.8 532.5 70 L 530 65 L 526 63.5 L 524.5 60 Q 519.3 61.8 521 56.5 Q 519.8 54 516 55 Q 517 51.2 514.5 50 Q 509.3 51.8 511 46.5 Q 509.8 44 506 45 Q 507 41.2 504.5 40 Q 499.3 41.8 501 36.5 Q 499.8 34 496 35 Q 497 31.2 494.5 30 L 491 28.5 L 489.5 25 Q 486.2 26.1 487 23.5 L 484.5 20 Q 481.2 21.1 482 18.5 L 481 16 L 477 15 L 475.5 11 L 472 10 L 470.5 6 L 467 4.5 L 465.5 1 L 462 0.5 L 900 0 L 900 383 L 0 383 L 0 0 Z M 245 236 L 244 237 Q 239 236 239 238 L 239 258 Q 242 257 244 260 L 294 260 L 295 255 Q 299 256 300 254 L 300 243 L 299 241 Q 293 243 295 237 L 292 236 L 245 236 Z M 335 236 L 332 237 L 330 241 Q 326 240 325 243 Q 327 250 323 249 Q 321 252 322 261 L 318 266 Q 312 267 311 263 L 308 265 L 308 266 L 301 266 L 300 271 L 296 272 L 294 267 L 292 266 L 284 266 L 283 264 L 282 264 L 281 263 L 278 266 L 239 266 L 239 285 Q 245 284 247 288 L 276 288 L 278 291 L 279 296 Q 278 298 281 297 L 281 356 L 278 359 Q 277 365 281 367 L 281 376 L 300 376 L 300 367 L 303 364 L 303 285 Q 309 284 311 288 L 323 288 L 324 289 L 330 288 L 333 285 L 338 284 L 339 284 L 339 280 L 344 279 L 344 274 L 348 270 L 349 266 L 348 248 L 344 241 L 339 237 L 335 236 Z M 399 236 Q 397 239 392 237 L 390 241 L 385 242 L 384 245 L 384 246 L 357 246 Q 354 247 355 251 L 350 255 L 350 258 L 355 266 L 350 274 Q 349 278 353 279 Q 355 278 354 281 L 352 281 L 347 285 Q 343 284 345 288 L 344 288 L 340 295 L 341 298 L 345 299 L 345 306 L 344 306 L 341 309 L 340 314 L 341 317 L 345 319 L 346 323 L 349 324 L 362 324 Q 364 321 369 322 L 369 337 L 371 339 L 365 340 Q 365 346 360 350 Q 358 366 362 376 L 379 376 L 379 374 L 382 372 L 383 370 L 383 350 L 379 345 Q 378 342 382 343 L 384 339 L 385 344 L 385 365 L 384 366 L 385 372 L 388 373 L 389 373 L 390 376 L 406 376 Q 405 373 408 372 L 408 343 Q 412 344 414 341 Q 416 342 415 339 L 421 338 L 425 331 Q 424 328 427 329 L 429 320 L 429 323 L 431 324 L 446 324 Q 448 323 447 319 Q 451 320 452 318 L 452 308 L 450 305 L 447 305 L 447 300 L 451 299 L 452 299 L 452 289 Q 451 285 447 286 L 446 283 L 446 281 L 442 281 L 443 279 L 442 268 L 440 266 L 442 265 L 443 260 Q 444 253 441 250 L 437 246 L 409 246 L 408 244 L 405 241 Q 402 242 403 239 L 399 236 Z M 502 236 L 499 237 L 497 241 L 493 242 Q 491 245 492 253 L 463 253 Q 461 258 453 256 Q 454 263 450 266 L 450 271 L 454 278 Q 457 281 464 280 L 465 291 L 467 293 L 467 304 L 470 309 L 472 309 L 472 314 L 477 318 L 477 322 L 473 327 L 473 371 L 477 374 L 478 376 L 496 376 L 497 367 L 499 365 L 499 334 L 501 329 L 501 324 L 507 324 Q 506 328 509 330 L 509 335 L 511 337 L 511 370 L 513 376 L 531 376 L 531 374 L 535 371 L 535 329 L 531 322 Q 530 315 535 314 Q 538 315 536 310 L 539 308 Q 542 305 541 298 L 543 296 L 543 280 L 553 279 L 556 275 L 556 284 L 561 290 L 561 300 L 557 301 L 556 304 L 556 365 L 557 367 L 561 368 Q 560 372 564 373 Q 568 372 566 376 L 585 376 L 585 373 L 588 373 L 589 370 L 592 368 L 594 366 L 595 357 L 597 355 L 597 316 L 599 314 L 608 315 L 610 319 L 610 355 L 609 355 L 600 368 L 602 376 L 624 376 L 624 373 L 629 373 L 629 376 L 646 376 L 646 373 L 648 373 L 648 319 L 649 318 L 650 314 L 661 314 L 661 291 L 649 290 Q 655 290 657 287 L 657 285 L 661 285 L 661 267 Q 661 266 657 266 Q 653 266 653 261 L 656 259 Q 660 254 658 244 L 655 242 L 653 239 L 649 236 Q 647 239 642 237 L 640 241 L 635 242 L 634 246 L 606 246 Q 605 246 605 251 L 601 252 L 600 255 L 602 266 L 597 266 Q 598 263 595 264 Q 596 261 593 260 Q 594 257 592 258 L 589 256 L 589 246 L 581 237 L 577 236 Q 569 236 567 241 L 562 248 L 561 257 L 560 258 Q 554 260 555 256 Q 547 258 546 253 L 516 253 L 516 245 L 515 244 Q 516 241 513 242 L 511 239 Q 508 235 502 236 Z M 247 290 L 239 293 L 239 314 L 251 314 L 252 316 L 252 372 Q 255 373 254 376 L 271 376 L 271 373 L 275 372 L 275 307 L 271 303 L 271 301 L 260 291 L 247 290 Z M 314 291 L 311 295 L 306 299 L 306 367 L 310 373 L 313 375 L 314 376 L 344 376 Q 343 370 347 369 L 344 366 Q 345 360 342 359 Q 337 360 338 358 Q 337 354 331 355 L 329 354 L 329 301 L 328 299 L 321 291 L 314 291 Z M 422 339 L 418 342 Q 419 345 416 344 L 413 348 L 413 370 L 416 376 L 433 376 L 433 373 L 437 372 L 437 348 L 436 347 Q 437 344 434 345 L 432 342 L 431 340 L 422 339 Z " /><path fill="rgb(0,0,0)" stroke="rgb(0,0,0)" stroke-width="1" opacity="0" d="M 418.5 49 L 419 88.5 L 418 94 Q 412.8 91.9 414 96.5 L 413 99 Q 407.4 96.8 409 102.5 Q 407.8 105 404 104 Q 405 107.8 402.5 109 Q 397.3 107.3 399 112.5 Q 397.8 115 394 114 L 394 118 L 392.5 118 L 389 119 L 389 123 L 387.5 123 L 384 125.5 Q 385.1 128.8 382.5 128 L 379 130.5 Q 380.3 134.3 376.5 133 Q 373.3 134.2 374 138 L 370 139.5 L 369 143 L 365 144.5 L 364.5 147 L 364 103 L 368 103 L 368 101.5 L 369 98 L 373 96.5 L 374 93 Q 379.2 95.1 378 90.5 L 379 88 L 383 88 L 383 84 L 384.5 84 L 388 83 L 388 79 L 389.5 79 L 393 78 Q 390.9 72.8 395.5 74 L 398 73 Q 395.9 67.8 400.5 69 L 403 68 Q 400.9 62.8 405.5 64 L 408 63 L 408 59 L 412 59 L 412 57.5 L 413 54 Q 416.8 54.8 418 51.5 L 418.5 49 Z " /><path fill="rgb(0,0,0)" stroke="rgb(0,0,0)" stroke-width="1" opacity="0" d="M 471 49 Q 474 47.8 473 51.5 L 478 54 L 479.5 58 L 483 60.5 Q 481.9 63.8 484.5 63 L 487 64 L 488 68 L 492 69.5 L 493 73 L 497 74.5 L 498 78 Q 503.6 75.8 502 81.5 L 507 84.5 L 508 88 L 512 89.5 L 513.5 93 L 517 94.5 L 518.5 98 L 522 99.5 L 523.5 103 L 527 103.5 L 527 133.5 Q 529.6 136.4 529 142.5 L 526.5 148 L 524.5 143 Q 519.7 144.7 521 140.5 Q 519.8 137.3 516 138 Q 517 134.2 514.5 133 L 511 133 L 511 129 L 509.5 129 L 506 128 L 506 124 L 504.5 124 L 501 123 Q 503.1 117.8 498.5 119 L 496 118 Q 498.2 112.4 492.5 114 Q 490 112.8 491 109 L 487 109 L 487 107.5 L 486 104 Q 480.8 106.1 482 101.5 L 481 99 Q 475.4 101.2 477 95.5 Q 475.8 93 472 94 L 471 88.5 L 471 49 Z " /><path fill="rgb(0,0,0)" stroke="rgb(0,0,0)" stroke-width="1" opacity="0" d="M 491 280 L 516.5 280 L 518 281.5 L 519 289.5 L 517 300 L 491 300 L 491 280 Z " /><path fill="rgb(0,0,0)" stroke="rgb(0,0,0)" stroke-width="1" opacity="0" d="M 594.5 284 Q 598.9 290.1 610 289.5 Q 601.2 289.4 596 292 L 594.5 296 L 591 297 L 590.5 300 Q 587.7 297.3 589 290.5 L 594 286.5 L 594.5 284 Z " /><path fill="rgb(255,255,255)" stroke="rgb(255,255,255)" stroke-width="1" opacity="0.596078431372549" d="M 434.5 0 Q 436.8 -0.8 436 1.5 L 431 5.5 L 396.5 42 L 387 50.5 L 360 78.5 L 360 80 L 358.5 80 L 350 88.5 Q 350.8 90.8 348.5 90 L 342 98.5 L 342 192.5 L 344.5 196 L 351 191.5 L 353.5 188 Q 355.8 188.8 355 186.5 L 432.5 107 L 436 104.5 L 441 97.5 L 442 70.5 L 441 69.5 L 441 1.5 L 440 0.5 L 445.5 0 L 445 1.5 L 444 13.5 L 445 14.5 L 445 93.5 Q 441.4 95.4 442 101.5 L 433.5 111 Q 431.3 110.3 432 112.5 L 406 138.5 L 406 140 L 401 143.5 Q 401.8 145.8 399.5 145 L 396 150 L 391 153.5 Q 391.8 155.8 389.5 155 L 385.5 160 L 382 162.5 L 380.5 165 L 377 167.5 L 374.5 171 L 372 172.5 L 370.5 175 L 367 177.5 L 365.5 180 L 362 182.5 L 360.5 185 L 358 186.5 L 355.5 190 L 353 191.5 L 349.5 196 L 344.5 200 L 341 195.5 L 341 185.5 L 340 184.5 L 340 101.5 Q 342.5 100 341 94.5 L 348.5 86 L 351 84.5 L 353.5 81 L 357 78.5 L 358.5 76 L 361 74.5 L 381 53.5 L 381 52 L 386 48.5 Q 385.3 46.3 387.5 47 L 392.5 41 L 396 38.5 Q 395.3 36.3 397.5 37 L 402.5 31 L 405 29.5 L 407.5 26 L 410 24.5 L 411.5 22 L 415 19.5 L 416.5 17 L 420 14.5 L 421.5 12 L 424 10.5 L 426.5 7 L 429 5.5 L 431.5 2 L 434.5 0 Z " /><path fill="rgb(255,255,255)" stroke="rgb(255,255,255)" stroke-width="1" opacity="0.596078431372549" d="M 448 0 L 451 0.5 L 450 1.5 L 450 98.5 L 456.5 106 L 460 108.5 L 461.5 111 L 464 112.5 L 466.5 116 L 469 117.5 L 471.5 121 L 474 122.5 L 476.5 126 L 479 127.5 L 514 163.5 L 514 165 L 518 167.5 L 519.5 170 L 523 172.5 L 524.5 175 L 528 177.5 L 529.5 180 L 533 182.5 L 534.5 185 L 538 187.5 L 545.5 196 L 549 191.5 L 549 99.5 L 547 93 L 543 90.5 L 530.5 77 L 528 75.5 L 503 49.5 L 503 48 L 498 44.5 Q 498.8 42.3 496.5 43 L 493 38 L 488 34.5 Q 488.8 32.3 486.5 33 L 482.5 28 L 479 25.5 L 477.5 23 L 474 20.5 L 472.5 18 L 469 15.5 L 467.5 13 L 464 10.5 L 462.5 8 L 460 6.5 L 457.5 3 L 454 0.5 L 456.5 0 L 461 3.5 L 463.5 7 L 466 8.5 L 467.5 11 L 471 13.5 L 472.5 16 L 476 18.5 L 477.5 21 L 481 23.5 L 482.5 26 L 485 27.5 L 487.5 31 L 490 32.5 L 491 36 L 495 37.5 L 497.5 41 L 500 42.5 L 501 46 L 505 47.5 L 507.5 51 L 510 52.5 Q 508.9 55.8 511.5 55 L 515 57.5 Q 513.9 60.8 516.5 60 L 520 62.5 Q 518.9 65.8 521.5 65 L 524 66 L 525 70 L 529 71 L 530 75 L 535 78.5 Q 534.3 80.8 536.5 80 L 539 81 L 540 85 L 544 87.5 L 545.5 90 L 549 92.5 L 552 103.5 L 552 124.5 L 551 125.5 L 551 194.5 L 547.5 199 Q 543.8 199.8 543 197.5 Q 543.8 195.3 541.5 196 L 497 150.5 L 497 149 L 492 145.5 Q 492.8 143.3 490.5 144 L 484.5 137 L 482 135.5 L 479.5 132 Q 477.3 132.8 478 130.5 L 473 127 L 467 118 L 462 114.5 Q 462.8 112.3 460.5 113 L 456.5 108 L 453 105.5 L 451.5 103 L 449 101.5 L 448 97.5 L 448 0 Z " /><path fill="rgb(255,255,255)" stroke="rgb(255,255,255)" stroke-width="1" opacity="0.596078431372549" d="M 423.5 33 Q 428 32 429 34.5 L 427 42.5 L 427 85.5 L 428 88.5 L 426 94.5 L 414.5 107 L 401 119.5 Q 401.8 121.8 399.5 121 L 395.5 126 L 392 128.5 L 389.5 132 L 387 133.5 L 384.5 137 L 382 138.5 L 359.5 163 L 357 159.5 L 357 101.5 L 368.5 89 Q 370.8 89.8 370 87.5 L 407 50.5 L 407 49 L 416 41.5 L 423.5 33 Z M 423 38 L 420 41 Q 421 43 419 42 L 416 46 L 413 48 L 411 51 L 409 52 L 406 56 L 404 57 L 400 62 Q 397 61 398 64 L 390 72 L 388 72 L 388 74 L 372 90 Q 373 92 371 91 L 362 100 L 362 101 L 358 104 L 358 157 L 360 159 L 361 157 L 365 154 L 366 152 L 370 149 L 371 147 L 374 145 L 379 139 Q 381 140 380 138 L 385 134 L 391 125 L 396 122 Q 395 119 398 120 L 400 117 L 403 115 L 405 112 L 408 110 L 410 107 L 413 105 L 415 102 L 418 100 L 420 97 L 423 95 L 425 89 L 424 84 L 424 39 L 423 38 Z " /><path fill="rgb(255,255,255)" stroke="rgb(255,255,255)" stroke-width="1" opacity="0.596078431372549" d="M 466.5 33 L 475 40.5 Q 474.3 42.8 476.5 42 L 480.5 47 L 485 50.5 Q 484.3 52.8 486.5 52 L 491.5 58 Q 493.8 57.3 493 59.5 L 498 63 L 501.5 68 Q 503.8 67.3 503 69.5 L 508 73 L 508 74.5 L 532 98.5 L 534 102.5 L 534 158.5 L 530.5 161 L 525.5 155 L 523 153.5 L 520.5 150 L 518 148.5 L 516.5 146 L 513 143.5 L 511.5 141 L 509 139.5 L 505.5 135 Q 503.3 135.8 504 133.5 L 499 129.5 L 496.5 126 L 494 124.5 L 491.5 121 L 489 119.5 L 486.5 116 Q 484.3 116.8 485 114.5 L 465 94.5 L 464 85.5 L 465 84.5 L 465 34.5 L 466.5 33 Z M 468 36 L 466 39 L 466 94 L 470 95 L 471 99 L 474 100 L 476 104 L 481 108 Q 480 110 483 109 L 486 114 L 491 118 Q 490 120 493 119 L 495 123 L 498 124 L 500 128 L 503 129 L 505 133 L 508 134 L 510 138 L 513 139 L 515 143 L 518 144 L 520 148 L 523 149 L 525 153 L 530 157 Q 529 159 532 158 L 532 103 L 512 83 L 512 81 L 507 78 L 505 75 L 502 73 L 502 72 L 482 51 L 472 42 Q 473 39 471 40 L 468 36 Z " /><path fill="rgb(255,255,255)" stroke="rgb(255,255,255)" stroke-width="1" opacity="0.596078431372549" d="M 243.5 242 L 292.5 242 L 294 243.5 L 295 248.5 L 291.5 254 L 244.5 254 L 242 251.5 Q 243.1 247.3 239 249 L 239 244 Q 242.4 244.8 243.5 242 Z M 286 243 L 285 244 L 246 244 L 243 245 L 244 250 L 247 252 L 291 252 L 293 246 L 292 244 Q 287 245 286 243 Z " /><path fill="rgb(255,255,255)" stroke="rgb(255,255,255)" stroke-width="1" opacity="0.596078431372549" d="M 333.5 242 L 339 243 Q 345.2 249.6 343 265.5 Q 338.3 270.6 337 278 L 325.5 282 L 309.5 282 L 302 276.5 L 303 272 L 308.5 269 Q 318.8 270.3 325.5 268 L 328 265.5 L 330 245.5 L 333.5 242 Z M 335 244 L 332 248 L 332 266 L 326 272 L 310 272 L 307 274 Q 304 273 305 276 L 311 279 L 316 278 L 331 278 L 333 277 L 337 273 L 340 261 L 339 250 L 337 245 L 335 244 Z " /><path fill="rgb(255,255,255)" stroke="rgb(255,255,255)" stroke-width="1" opacity="0.596078431372549" d="M 395.5 242 Q 401 241 402 244.5 L 403 250 L 405.5 251 L 433.5 251 L 437 253.5 L 438 255.5 L 436 261.5 L 433.5 264 L 403.5 264 L 403 267 L 407.5 268 L 431.5 268 L 437 272.5 L 438 275.5 L 436 280 Q 433 282.7 426.5 283 L 425.5 282 L 408.5 282 L 403 283 L 403.5 286 L 439.5 286 L 443.5 287 L 446 289.5 L 447 295.5 L 444.5 299 L 435.5 300 L 433 299 Q 431.9 301.7 434.5 301 L 436 305 Q 438.4 306.8 444.5 306 L 446 307.5 L 447 314.5 L 444.5 318 L 436.5 319 L 430 317 L 428.5 314 L 424 311.5 Q 425 307.8 422 309 L 422 325.5 L 413.5 336 Q 410 339.2 403 338 L 403 367.5 L 400.5 373 Q 393.7 373.9 391 372 L 390 369.5 L 390 300 L 378.5 300 L 373 304.5 L 373 307.5 L 366.5 314 Q 363 319.5 353.5 319 L 348.5 318 L 346 315.5 Q 345.3 309.3 348.5 307 L 360 305 L 361 300.5 Q 360 298 355.5 299 L 353.5 299 L 347 298 L 346 293.5 L 351.5 287 L 354.5 286 L 389 286 Q 390.7 281.9 386.5 283 Q 385.3 280.8 380.5 282 L 376.5 283 L 375.5 282 L 365.5 282 L 363.5 282 L 356 277.5 Q 355 272 358.5 271 L 363.5 268 L 389 268 L 390 265.5 L 388.5 264 L 362.5 264 L 356 258.5 Q 355 253 358.5 252 L 362.5 251 L 389 251 L 392.5 243 L 395.5 242 Z M 398 244 L 395 245 L 392 251 L 390 253 L 363 253 L 360 254 L 358 257 L 364 261 L 389 261 L 391 262 L 392 265 Q 393 271 389 272 L 377 272 L 376 271 L 374 272 L 363 272 L 358 276 L 364 279 L 390 279 Q 393 281 392 287 L 389 289 L 354 289 L 349 296 L 355 298 L 357 297 L 365 299 L 362 305 L 360 307 L 353 308 Q 349 310 349 315 L 354 317 L 360 316 L 368 310 Q 367 307 370 308 L 373 301 L 377 298 L 392 298 L 395 301 L 392 305 L 392 369 Q 393 372 399 371 L 401 369 L 401 339 L 404 336 L 409 336 L 413 333 L 420 325 L 420 314 L 419 312 L 414 309 L 411 313 Q 412 322 410 326 L 404 327 L 401 325 L 401 303 L 400 299 L 403 298 L 419 298 L 426 310 L 437 317 Q 444 319 445 315 L 444 308 L 436 307 L 432 305 L 430 300 L 432 298 L 444 297 L 445 296 L 444 292 L 441 289 L 415 289 L 414 288 L 402 288 L 401 286 L 402 281 L 404 279 L 432 279 L 434 278 L 435 275 L 433 272 L 404 271 Q 400 270 401 265 L 404 262 L 409 261 L 433 261 Q 436 259 435 254 L 433 253 L 404 253 Q 400 252 401 247 L 398 244 Z M 403 300 L 403 325 Q 403 326 408 325 L 409 324 Q 408 314 410 309 Q 411 305 417 306 Q 418 308 419 306 L 418 302 L 418 300 L 403 300 Z " /><path fill="rgb(255,255,255)" stroke="rgb(255,255,255)" stroke-width="1" opacity="0.596078431372549" d="M 500.5 242 Q 508.2 240.2 510 244.5 L 511 259 L 546.5 259 L 554 263.5 L 554 268.5 L 552 272 L 545.5 274 L 539.5 274 L 538 275.5 L 538 294.5 Q 534.2 297.7 535 305.5 L 532.5 309 L 530 310.5 L 527.5 314 L 525 314 L 525 320.5 L 530 328.5 L 530 368.5 L 527.5 372 L 522 373 L 521.5 376 L 517 370.5 L 517 337.5 Q 514.3 335.8 516 329.5 L 507.5 319 L 500.5 319 L 495 324.5 L 492 333.5 L 492 365.5 L 491 370.5 L 486.5 376 L 486 373 Q 481.1 373.1 479 369.5 L 479 328.5 L 482 324.5 L 483 314 Q 479.2 314.8 478 311.5 L 473 304.5 Q 474 297.5 471 294.5 L 471 275 L 458.5 273 L 454 268.5 Q 452.8 263.3 455.5 262 L 462.5 259 L 497 259 L 498 244.5 L 500.5 242 Z M 502 244 L 499 250 Q 500 258 498 262 L 463 262 L 458 264 Q 455 263 456 267 L 462 270 L 464 270 L 471 271 L 474 275 L 474 299 L 475 304 L 480 311 L 485 315 L 485 322 L 482 330 L 482 368 L 483 370 L 488 371 L 490 365 L 490 329 L 494 322 L 501 317 L 511 318 L 518 328 L 518 364 Q 520 365 519 370 L 521 371 L 526 370 L 528 366 L 528 331 L 523 321 L 523 315 L 527 312 L 533 305 L 534 293 L 535 292 L 535 277 L 534 276 L 535 274 Q 538 269 548 270 L 553 266 L 551 263 L 547 262 L 510 262 L 509 260 Q 510 251 508 246 Q 507 243 502 244 Z " /><path fill="rgb(255,255,255)" stroke="rgb(255,255,255)" stroke-width="1" opacity="0.596078431372549" d="M 573.5 242 L 577.5 242 L 582 245.5 L 584 261 Q 587.8 260.3 589 263.5 Q 591.3 268.3 590 276.5 Q 587.8 277.8 589 282.5 L 583 290.5 L 583 297.5 L 584 301 L 588 303.5 L 590 311.5 L 590 357.5 L 589 361.5 L 579.5 372 L 576 373 Q 577.3 377.1 574 376 Q 575.5 372.3 572.5 373 L 570 368 L 562 362.5 L 561 360.5 L 561 307.5 L 563 302 L 567 299.5 L 569 293.5 L 561 280.5 L 561 264.5 L 562 262 L 567 259.5 L 569 256.5 L 569 250.5 L 571 244.5 L 573.5 242 Z M 575 244 L 572 249 Q 574 257 571 261 L 563 266 L 563 281 L 572 291 L 572 297 L 568 303 L 565 304 L 563 309 L 563 360 Q 565 363 570 363 L 572 369 Q 572 372 577 371 Q 580 371 579 367 L 586 362 L 588 359 L 588 311 L 586 305 L 584 303 L 579 296 Q 580 286 587 282 L 588 277 Q 590 268 587 265 L 582 262 L 580 261 Q 581 250 578 245 L 575 244 Z " /><path fill="rgb(255,255,255)" stroke="rgb(255,255,255)" stroke-width="1" opacity="0.596078431372549" d="M 643.5 242 Q 649.6 241.3 652 243 Q 653.7 245.4 653 251.5 Q 651.6 257.6 646.5 260 L 643 261.5 Q 643.8 263.8 641.5 263 L 634 265.5 Q 641.1 269.9 654.5 268 Q 656.4 271.6 661 271 Q 662.7 275.1 658.5 274 L 655.5 272 L 637.5 271 L 632 266.5 L 633 263 L 643.5 259 L 651 251.5 Q 652.5 245.5 649.5 244 Q 643.3 242.8 642 246.5 Q 641.8 251.3 638.5 253 L 610.5 253 L 608 254 Q 607 258.7 610.5 260 L 619.5 261 L 625 264.5 L 625 266.5 L 620.5 271 L 618.5 272 L 602.5 272 L 598 275.5 L 603.5 279 L 619.5 279 L 621 280.5 L 622 286.5 L 620 291 L 609.5 298 Q 603.4 297.3 601 299 L 598 304.5 Q 601.1 308.9 610.5 307 Q 620.3 302.8 627 295.5 L 628.5 293 L 632 295.5 L 633.5 298 L 636 299.5 Q 635.3 301.8 637.5 301 L 644.5 306 L 655.5 307 L 661 306 Q 662.3 309 658.5 308 L 657.5 309 L 643 309 L 643 370.5 L 638.5 376 L 638 373 Q 633 373.8 631 370.5 L 630 365.5 L 630 313.5 L 634.5 307 L 639 306 Q 640.3 303 636.5 304 L 634 300 L 630 297.5 L 629.5 296 Q 628.3 299.8 624 299 L 623 303 L 618 304.5 L 627 311.5 L 628 313.5 L 628 359.5 L 626 365 Q 623.3 363.9 624 366.5 L 620.5 372 L 615 373 L 615 376 L 609 376 L 609 373 Q 606.3 374.1 607 371.5 L 606 366.5 L 610 364 L 612.5 360 L 615 358.5 L 615 308.5 L 613.5 308 L 612.5 309 L 600.5 309 L 596 305.5 Q 595.6 299.1 599.5 297 L 609.5 296 L 617 289.5 L 620 284.5 L 618.5 283 L 604.5 283 L 597 279 L 596 273.5 L 603.5 268 L 618.5 268 L 621 265.5 L 619.5 264 L 610.5 264 L 607 261.5 L 606 253.5 L 609.5 251 L 634.5 251 L 639 249 L 641 243 L 643.5 242 Z M 620 308 L 617 312 L 617 359 L 616 361 L 610 366 L 608 370 L 614 372 L 619 370 L 621 368 L 626 357 L 626 316 L 620 308 Z M 639 308 L 633 314 Q 635 319 632 321 L 632 348 L 633 349 L 633 368 L 634 370 L 637 371 Q 640 372 641 370 L 641 312 L 639 308 Z " /><path fill="rgb(255,255,255)" stroke="rgb(255,255,255)" stroke-width="1" opacity="0.596078431372549" d="M 246.5 269 L 281.5 269 L 284.5 271 L 290.5 272 L 294 275.5 L 295 282.5 L 297 285.5 L 298 362.5 L 297 367.5 L 292.5 373 Q 289.9 372.2 291 375.5 L 290 375.5 Q 291.3 371.8 287.5 373 L 283 368.5 L 282 357.5 L 283 356.5 L 283 326.5 L 282 325.5 L 282 306.5 Q 284.7 304.8 283 298.5 L 282 295.5 L 283 294.5 L 283 285.5 L 281 282 L 275.5 281 L 246.5 281 L 242 279 Q 243.1 275.7 239 277 L 239 273 L 241.5 273 L 246.5 269 Z M 247 272 L 243 276 L 246 278 L 278 278 L 282 279 L 286 285 L 286 309 L 285 310 L 285 322 L 286 323 L 286 367 L 287 368 Q 286 371 289 370 L 291 372 L 294 369 L 294 285 L 292 278 Q 289 273 283 272 L 247 272 Z " /><path fill="rgb(255,255,255)" stroke="rgb(255,255,255)" stroke-width="1" opacity="0.596078431372549" d="M 518.5 270 L 521.5 270 L 526 273.5 L 527 279.5 L 526 280.5 L 526 296.5 L 522 306 L 514.5 308 L 508.5 308 L 507.5 307 L 489.5 307 L 485 303.5 L 483 294.5 L 484 293.5 L 484 278.5 L 483 275.5 L 486.5 271 L 517.5 271 L 518.5 270 Z M 486 274 L 486 301 L 492 306 L 517 306 Q 522 304 523 298 L 523 276 L 522 274 L 486 274 Z " /><path fill="rgb(255,255,255)" stroke="rgb(255,255,255)" stroke-width="1" opacity="0.596078431372549" d="M 657.5 277 Q 662.8 275.5 661 280 Q 655.9 278.8 654.5 282 L 643.5 282 L 638 284.5 L 643.5 292 L 648.5 296 L 661 297 L 661 303 L 658 303 L 654.5 298 Q 646.6 298.8 643 296 L 641.5 293 L 637 289.5 L 636 283.5 L 638.5 279 L 653.5 279 L 657.5 277 Z " /><path fill="rgb(255,255,255)" stroke="rgb(255,255,255)" stroke-width="1" opacity="0.596078431372549" d="M 245.5 296 L 256.5 296 L 268 304.5 L 270 308.5 L 270 370.5 Q 268 375 259.5 373 L 257 369.5 L 257 311.5 L 254.5 309 L 244.5 309 L 239 307 L 239 302 Q 243.1 303.7 242 299.5 L 243 297 L 245.5 296 Z M 245 299 L 243 305 L 246 307 Q 253 306 257 308 L 259 312 L 259 370 Q 260 373 267 371 L 268 370 L 268 309 L 257 299 L 245 299 Z " /><path fill="rgb(255,255,255)" stroke="rgb(255,255,255)" stroke-width="1" opacity="0.596078431372549" d="M 314.5 297 Q 320.9 296.6 323 300.5 L 324 302.5 L 324 359.5 L 325.5 361 L 335.5 362 L 339 365.5 L 340 369.5 L 337.5 373 L 336 373 L 335.5 376 L 323 376 Q 324.8 371.5 319.5 373 L 315 369.5 Q 315.8 367.3 313.5 368 L 311 364.5 L 311 302.5 L 314.5 297 Z M 314 301 L 313 304 L 313 364 L 317 369 Q 322 374 335 372 Q 338 372 337 368 L 335 365 Q 327 366 324 364 L 322 360 L 322 304 Q 320 300 314 301 Z " /><path fill="rgb(255,255,255)" stroke="rgb(255,255,255)" stroke-width="1" opacity="0.596078431372549" d="M 377.5 306 Q 383.9 306.7 386 311.5 L 387 313.5 L 387 330.5 L 384.5 334 Q 382.3 333.3 383 335.5 L 378.5 338 L 376 337 L 374 331.5 L 374 313.5 L 377.5 306 Z M 379 309 L 376 314 L 376 331 L 377 334 L 380 335 L 384 330 L 384 315 L 382 312 L 379 309 Z " /><path fill="rgb(255,255,255)" stroke="rgb(255,255,255)" stroke-width="1" opacity="0.596078431372549" d="M 367.5 345 Q 374.8 343.8 377 347.5 L 378 350.5 L 378 368.5 L 374.5 373 Q 367.8 374.8 366 371.5 L 365 369.5 L 365 347.5 L 367.5 345 Z M 369 347 L 367 349 L 367 370 L 369 371 L 375 370 L 376 367 Q 377 355 375 348 L 369 347 Z " /><path fill="rgb(255,255,255)" stroke="rgb(255,255,255)" stroke-width="1" opacity="0.596078431372549" d="M 421.5 345 Q 428.4 344.1 431 347.5 Q 433.6 355.4 432 367.5 L 429.5 372 L 421.5 373 L 419 370.5 L 419 347.5 L 421.5 345 Z M 423 347 L 421 349 L 421 370 L 423 371 L 428 370 L 430 365 Q 431 353 428 348 L 423 347 Z " /><path fill="rgb(255,255,255)" stroke="rgb(255,255,255)" stroke-width="1" opacity="0.10588235294117647" d="M 428.5 0 L 434 0.5 L 429 4.5 L 427.5 7 L 424 9.5 L 422.5 12 L 420 13.5 L 417.5 17 L 415 18.5 L 412.5 22 L 410 23.5 L 408.5 26 L 405 28.5 L 403.5 31 L 400 33.5 L 397.5 37 Q 395.3 36.3 396 38.5 L 391 42.5 L 387.5 47 Q 385.3 46.3 386 48.5 L 381 52 L 381 53.5 L 359.5 76 L 357 77.5 L 354.5 81 L 351 83.5 L 349.5 86 L 347 87.5 L 341 94.5 Q 342.5 100 340 101.5 L 340 184.5 L 341 185.5 L 341 195.5 L 344.5 200 L 353 192.5 L 354.5 190 L 358 187.5 L 359.5 185 L 362 183.5 L 364.5 180 L 367 178.5 L 369.5 175 L 372 173.5 L 373.5 171 L 377 168.5 L 379.5 165 L 382 163.5 L 384.5 160 L 387 158.5 L 389.5 155 Q 391.8 155.8 391 153.5 L 396 150 L 399.5 145 Q 401.8 145.8 401 143.5 L 406 140 L 406 138.5 L 432 112.5 L 432 111 L 435 109.5 L 442 101.5 Q 441.4 95.4 445 93.5 L 445 14.5 Q 442.5 13 444 7.5 Q 446.3 6.3 445 1.5 L 446.5 0 L 448 0.5 L 448 97.5 L 450.5 103 L 453 104.5 L 455.5 108 L 458 109.5 L 460.5 113 Q 462.8 112.3 462 114.5 L 467 118 L 473 127 L 478 130.5 Q 477.3 132.8 479.5 132 L 483.5 137 L 487 139.5 L 490.5 144 Q 492.8 143.3 492 145.5 L 497 149 L 497 150.5 L 541.5 196 Q 543.8 195.3 543 197.5 Q 543.8 199.8 547.5 199 L 551 194.5 L 551 125.5 L 552 124.5 L 552 103.5 L 550 94.5 L 546.5 90 L 544 88.5 L 541.5 85 Q 539.3 85.8 540 83.5 L 539 81 L 535 80 L 531.5 75 Q 529.3 75.8 530 73.5 L 529 71 L 525 70 L 524 66 L 520 65 L 518.5 61 L 515 60 L 513.5 56 L 510 55 L 508.5 51 L 505 48.5 L 503.5 46 Q 500.2 47.1 501 44.5 L 498.5 41 L 495 38.5 L 493.5 36 Q 490.2 37.1 491 34.5 L 488.5 31 L 485 28.5 L 483.5 26 L 481 24.5 L 478.5 21 L 476 19.5 L 473.5 16 L 471 14.5 L 468.5 11 L 466 9.5 L 464.5 7 L 461 4.5 L 459.5 2 L 457 0.5 L 461.5 0 L 467 2.5 L 468.5 6 L 472 7.5 Q 470.9 10.8 473.5 10 L 477 12.5 Q 475.9 15.8 478.5 15 L 481 16 L 482 20 L 486 21.5 L 487 25 L 491 26.5 L 492.5 30 L 496 31.5 Q 494.3 36.8 499.5 35 Q 502 36.2 501 40 Q 504.8 39 506 41.5 Q 504.3 46.8 509.5 45 Q 512 46.2 511 50 Q 514.8 49 516 51.5 Q 514.3 56.8 519.5 55 Q 522 56.2 521 60 Q 524.8 59 526 61.5 L 527.5 65 Q 530.8 63.9 530 66.5 L 532.5 70 Q 536.3 68.8 535 72.5 L 540 75 Q 537.8 80.6 543.5 79 Q 546 80.2 545 84 L 550 85 Q 547.9 90.2 552.5 89 Q 556 90 555 95.5 L 558 98.5 L 558 197.5 L 555 199 Q 556.5 202.8 553.5 202 L 548.5 206 L 544.5 206 L 542 205 L 540.5 201 Q 536.1 202.5 537 199.5 L 536 196 L 532 194.5 L 530.5 191 L 527 189.5 L 525.5 186 L 522 184.5 Q 523.1 181.2 520.5 182 L 517 179.5 Q 518.1 176.2 515.5 177 L 512 174.5 Q 513.3 170.8 509.5 172 L 507 171 Q 509.1 165.8 504.5 167 Q 501.3 165.8 502 162 Q 498.2 162.8 497 159.5 L 497 157 L 493 157 L 493 155.5 L 492 152 L 488 150.5 L 487 147 L 483 145.5 L 482 142 L 478 140.5 L 476.5 137 L 473 135.5 L 471.5 132 L 468 129.5 L 466.5 127 L 463 125.5 L 461.5 122 Q 458.2 123.1 459 120.5 L 456.5 117 Q 453.2 118.1 454 115.5 L 451.5 112 L 449 110.5 L 447.5 106 L 442 108 Q 443 111.8 440.5 113 Q 435.3 111.3 437 116.5 Q 435.8 119 432 118 L 432 122 L 430.5 122 L 428 123 L 427 127 L 423 128 L 422 132 L 418 133.5 L 416.5 137 L 413 138 L 411.5 142 Q 406.3 140.3 408 145.5 Q 406.8 148 403 147 Q 404 150.8 401.5 152 Q 396.3 150.3 398 155.5 Q 396.8 158 393 157 Q 394 160.8 391.5 162 Q 386.3 160.3 388 165.5 Q 386.8 168 383 167 Q 384 170.8 381.5 172 L 378 173.5 Q 379.1 176.8 376.5 176 L 374 177 L 373 181 L 369 182 L 368 186 L 364 187.5 L 362.5 191 L 359 192 L 357.5 196 L 354 197.5 L 352.5 201 Q 348.1 199.5 349 202.5 L 346.5 206 Q 342 207 341 204.5 L 340 201 Q 336.2 201.8 335 198.5 L 335 95.5 L 338.5 90 Q 341.1 90.8 340 87.5 L 341 85 L 345 84 L 346.5 80 L 350 79 L 351.5 75 L 355 73.5 L 356.5 70 L 360 68.5 L 361.5 65 L 365 63.5 L 366.5 60 Q 369.8 61.1 369 58.5 L 371.5 55 Q 375.3 56.3 374 52.5 L 375 50 Q 380.2 52.1 379 47.5 L 380 45 Q 385.2 47.1 384 42.5 Q 385.2 39.3 389 40 Q 388 36.2 390.5 35 Q 395.8 36.8 394 31.5 Q 395.2 29 399 30 Q 398 26.2 400.5 25 L 404 25 L 404 21 L 405.5 21 L 409 20 L 409 16 L 410.5 16 L 413 15 L 414 11 L 418 10 L 419 6 Q 424.2 8.1 423 3.5 L 424 1 L 428.5 0 Z " /><path fill="rgb(255,255,255)" stroke="rgb(255,255,255)" stroke-width="1" opacity="0.10588235294117647" d="M 467.5 36 L 470.5 40 Q 472.8 39.3 472 41.5 L 482 50.5 L 502 71.5 L 502 73 L 505 74.5 L 507 77.5 L 512 81 L 512 82.5 L 532 102.5 L 532 158 Q 529.3 159.1 530 156.5 L 525 152.5 L 522.5 149 L 520 147.5 L 517.5 144 L 515 142.5 L 512.5 139 L 510 137.5 L 507.5 134 L 505 132.5 L 502.5 129 L 500 127.5 L 497.5 124 L 495 122.5 L 492.5 119 Q 490.3 119.8 491 117.5 L 486 114 L 482.5 109 Q 480.3 109.8 481 107.5 L 476 103.5 L 473.5 100 L 471 98.5 L 470 95 L 466 93.5 L 466 38.5 L 467.5 36 Z M 471 49 L 471 89 L 472 94 Q 476 93 477 96 Q 475 101 481 99 L 482 102 Q 481 106 486 104 L 487 108 L 487 109 L 491 109 Q 490 113 493 114 Q 498 112 496 118 L 499 119 Q 503 118 501 123 L 505 124 L 506 124 L 506 128 L 510 129 L 511 129 L 511 133 L 515 133 Q 517 134 516 138 Q 520 137 521 141 Q 520 145 525 143 L 527 148 L 529 143 Q 530 136 527 134 L 527 104 L 524 103 L 522 100 L 519 98 L 517 95 L 514 93 L 512 90 L 508 88 L 507 85 L 502 82 Q 504 76 498 78 L 497 75 L 493 73 L 492 70 L 488 68 L 487 64 L 485 63 Q 482 64 483 61 L 480 58 L 478 54 L 473 52 Q 474 48 471 49 Z " /><path fill="rgb(255,255,255)" stroke="rgb(255,255,255)" stroke-width="1" opacity="0.10588235294117647" d="M 422.5 38 L 424 38.5 L 424 83.5 L 425 88.5 L 422.5 95 L 420 96.5 L 417.5 100 L 415 101.5 L 412.5 105 L 410 106.5 L 407.5 110 L 405 111.5 L 402.5 115 L 400 116.5 L 397.5 120 Q 395.3 119.3 396 121.5 L 391 125 L 385 134 L 380 137.5 Q 380.8 139.8 378.5 139 L 373.5 145 L 371 146.5 L 369.5 149 L 366 151.5 L 364.5 154 L 361 156.5 L 359.5 159 L 358 156.5 L 358 103.5 L 362 101 L 362 99.5 L 370.5 91 Q 372.8 91.8 372 89.5 L 388 73.5 L 388 72 L 389.5 72 L 398 63.5 Q 397.3 61.3 399.5 62 L 403.5 57 L 406 55.5 L 408.5 52 L 411 50.5 L 412.5 48 L 416 45.5 L 418.5 42 Q 420.8 42.8 420 40.5 L 422.5 38 Z M 419 49 L 418 52 Q 417 55 413 54 L 412 58 L 412 59 L 408 59 L 408 63 L 406 64 Q 401 63 403 68 L 401 69 Q 396 68 398 73 L 396 74 Q 391 73 393 78 L 390 79 L 388 79 L 388 83 L 385 84 L 383 84 L 383 88 L 379 88 L 378 91 Q 379 95 374 93 L 373 97 L 369 98 L 368 102 L 368 103 L 364 103 L 365 147 L 365 145 L 369 143 L 370 140 L 374 138 Q 373 134 377 133 Q 380 134 379 131 L 383 128 Q 385 129 384 126 L 388 123 L 389 123 L 389 119 L 393 118 L 394 118 L 394 114 Q 398 115 399 113 Q 397 107 403 109 Q 405 108 404 104 Q 408 105 409 103 Q 407 97 413 99 L 414 97 Q 413 92 418 94 L 419 89 L 419 49 Z " /><path fill="rgb(255,255,255)" stroke="rgb(255,255,255)" stroke-width="1" opacity="0.10588235294117647" d="M 244.5 236 L 291.5 236 L 295 237 Q 292.8 242.6 298.5 241 L 300 242.5 L 300 253.5 Q 298.8 256 295 255 L 294 260 L 243.5 260 Q 242.4 257.3 239 258 L 239 249 L 242 249 Q 241.3 252.8 244.5 254 L 291.5 254 L 294 251.5 L 295 245.5 L 292.5 242 L 243.5 242 Q 242.4 244.8 239 244 L 239 237 L 243.5 237 L 244.5 236 Z " /><path fill="rgb(255,255,255)" stroke="rgb(255,255,255)" stroke-width="1" opacity="0.10588235294117647" d="M 334.5 236 L 338.5 237 L 344 241 L 348 247.5 L 349 265.5 L 348 269.5 L 344 273.5 L 344 279 L 339 280 L 339 284 L 337.5 284 L 332.5 285 L 329.5 288 L 323.5 289 L 322.5 288 L 310.5 288 Q 308.9 283.8 303 285 L 303 363.5 L 300 366.5 L 300 376 L 291 376 L 291 373 L 295 370.5 L 298 362.5 L 298 317.5 L 297 316.5 L 297 285.5 L 295 282.5 L 294 275.5 L 290.5 272 L 284.5 271 L 281.5 269 L 246.5 269 L 241.5 273 L 239 273 L 239 266.5 L 239.5 266 L 277.5 266 L 280.5 263 L 281.5 264 L 283 264 L 283.5 266 L 291.5 266 L 294 267 L 295.5 272 L 300 271 L 301 266 L 307.5 266 L 308 264.5 L 310.5 263 Q 312.1 267.3 318 266 L 322 260.5 Q 320.9 252.3 323 249 Q 326.5 250.1 325 242.5 Q 326.2 240 330 241 L 331.5 237 L 334.5 236 Z M 334 242 L 330 246 L 328 266 L 326 268 Q 319 270 309 269 L 303 272 L 302 277 L 310 282 L 326 282 L 337 278 Q 338 271 343 266 Q 345 250 339 243 L 334 242 Z " /><path fill="rgb(255,255,255)" stroke="rgb(255,255,255)" stroke-width="1" opacity="0.10588235294117647" d="M 398.5 236 L 403 238.5 Q 401.9 241.8 404.5 241 L 408 243.5 L 408.5 246 L 436.5 246 L 441 249.5 Q 444 252.5 443 259.5 L 442 265 L 440 265.5 L 442 267.5 L 443 278.5 L 442 281 L 446 281 L 446 282.5 L 447 286 Q 450.8 285.3 452 288.5 L 452 298.5 L 450.5 299 L 447 300 L 447 305 L 449.5 305 L 452 307.5 L 452 317.5 Q 450.8 320 447 319 Q 448 322.8 445.5 324 L 430.5 324 L 429 322.5 L 428.5 320 L 427 329 Q 424.3 327.9 425 330.5 L 420.5 338 L 415 339 Q 416.1 341.7 413.5 341 Q 412.3 344 408 343 L 408 371.5 Q 405.3 372.6 406 376 L 389.5 376 L 389 373 L 387.5 373 L 385 372 L 384 365.5 L 385 364.5 L 385 343.5 L 383.5 339 L 381.5 343 Q 378.2 341.9 379 344.5 L 383 349.5 L 383 369.5 L 382 372 L 379 373.5 L 378.5 376 L 362 376 Q 358.1 366.4 360 349.5 Q 364.6 346.2 365 340 L 371 338.5 L 369 336.5 L 369 322 Q 363.8 321 361.5 324 L 348.5 324 L 346 323 L 345 319 L 341 316.5 L 340 313.5 L 341 308.5 L 343.5 306 L 345 305.5 L 345 299 L 341 297.5 L 340 294.5 L 343.5 288 L 345 288 Q 343.5 284.3 346.5 285 L 351.5 281 L 354 281 Q 355.1 278.3 352.5 279 Q 349.3 278.3 350 273.5 L 355 265.5 L 350 257.5 L 350 254.5 L 355 250.5 Q 354.3 246.8 356.5 246 L 383.5 246 L 384 244.5 L 385 242 L 390 241 L 391.5 237 Q 397 238.5 398.5 236 Z M 396 242 L 393 243 L 389 251 L 363 251 L 359 252 Q 355 253 356 259 L 363 264 L 389 264 L 390 266 L 389 268 L 364 268 L 359 271 Q 355 272 356 278 L 364 282 L 366 282 L 376 282 L 377 283 L 381 282 Q 385 281 387 283 Q 391 282 389 286 L 355 286 L 352 287 L 346 294 L 347 298 L 354 299 L 356 299 Q 360 298 361 301 L 360 305 L 349 307 Q 345 309 346 316 L 349 318 L 354 319 Q 363 320 367 314 L 373 308 L 373 305 L 379 300 L 390 300 L 390 370 L 391 372 Q 394 374 401 373 L 403 368 L 403 338 Q 410 339 414 336 L 422 326 L 422 309 Q 425 308 424 312 L 429 314 L 430 317 L 437 319 L 445 318 L 447 315 L 446 308 L 445 306 Q 438 307 436 305 L 435 301 Q 432 302 433 299 L 436 300 L 445 299 L 447 296 L 446 290 L 444 287 L 440 286 L 404 286 L 403 283 L 409 282 L 426 282 L 427 283 Q 433 283 436 280 L 438 276 L 437 273 L 432 268 L 408 268 L 403 267 L 404 264 L 434 264 L 436 262 L 438 256 L 437 254 L 434 251 L 406 251 L 403 250 L 402 245 Q 401 241 396 242 Z M 378 306 L 374 314 L 374 332 L 376 337 L 379 338 L 383 336 Q 382 333 385 334 L 387 331 L 387 314 L 386 312 Q 384 307 378 306 Z M 368 345 L 365 348 L 365 370 L 366 372 Q 368 375 375 373 L 378 369 L 378 351 L 377 348 Q 375 344 368 345 Z " /><path fill="rgb(255,255,255)" stroke="rgb(255,255,255)" stroke-width="1" opacity="0.10588235294117647" d="M 501.5 236 Q 508.4 235.1 511 238.5 L 512.5 242 Q 515.8 240.9 515 243.5 L 516 244.5 L 516 253 L 545.5 253 Q 547.5 257.8 555 256 Q 553.6 259.7 559.5 258 L 561 256.5 L 562 247.5 L 566.5 241 Q 569.4 236.4 576.5 236 L 580.5 237 L 589 245.5 L 589 255.5 L 591.5 258 Q 593.8 257.3 593 259.5 Q 595.8 260.6 595 264 Q 598 263 597 266 L 602 266 L 600 254.5 L 601 252 L 605 250.5 Q 604.5 246 605.5 246 L 633.5 246 L 635 242 L 640 241 L 641.5 237 Q 647 238.5 648.5 236 L 653 238.5 L 654.5 242 L 658 243.5 Q 660 254.5 655.5 259 L 653 260.5 Q 652.5 265.5 656.5 266 L 661 266 L 661 271 Q 656.4 271.6 654.5 268 Q 641.1 269.9 634 265.5 L 643 263 L 644.5 260 L 646.5 260 L 652 254.5 L 653 245.5 L 652 243 Q 649.6 241.3 643.5 242 L 641 243 L 639 249 L 634.5 251 L 609.5 251 L 606 253.5 Q 604.8 260.8 608.5 263 Q 612 265.5 619.5 264 L 621 265.5 L 618.5 268 L 603.5 268 L 596 273.5 L 597 279 L 604.5 283 L 618.5 283 L 620 284.5 L 614.5 292 L 609.5 296 Q 600.1 294.6 597 299.5 L 596 305.5 L 600.5 309 L 612.5 309 L 615 308 L 615 358.5 L 613.5 360 L 610 362.5 Q 610.8 364.8 608.5 364 Q 605 365 606 370.5 L 607 373 Q 610.3 371.9 609 376 L 602 376 L 602 373.5 L 600 367.5 L 608.5 355 L 610 354.5 L 610 318.5 L 607.5 315 L 598.5 314 L 597 315.5 L 597 354.5 L 595 356.5 L 594 365.5 L 591.5 368 L 589 369.5 L 587.5 373 L 585 373 L 584.5 376 L 576 376 Q 574.5 372.3 577.5 373 L 582 369.5 L 589 361.5 L 590 357.5 L 590 311.5 Q 587.8 310.2 589 305.5 L 585.5 301 Q 582.9 301.8 584 298.5 Q 581.3 296.8 583 290.5 L 589 282.5 L 590 266.5 L 586.5 261 Q 582.3 262.3 584 257.5 L 583 256.5 L 583 248.5 L 580.5 244 Q 578.8 241.2 573.5 242 L 571 244.5 L 569 250.5 L 569 256.5 L 565.5 261 L 562 262 L 561 264.5 L 561 280.5 L 568 290.5 L 569 295.5 L 564.5 302 Q 562.3 301.3 563 303.5 L 561 307.5 L 561 360.5 L 565.5 366 L 570 368 L 572.5 373 Q 575.5 372.2 574 376 L 566.5 376 L 566 373 L 563.5 373 Q 560.3 371.8 561 368 L 557 367 L 556 364.5 L 556 303.5 L 557 301 L 561 299.5 L 561 289.5 L 556 283.5 L 555.5 275 L 552.5 279 L 543 280 L 543 295.5 L 541 297.5 Q 542.1 305.1 538.5 308 L 536 309.5 Q 537.9 314.9 534.5 314 Q 530 315 531 321.5 L 535 328.5 L 535 370.5 L 531 373.5 L 530.5 376 L 522 376 Q 520.3 371.5 525.5 373 L 529 370.5 L 530 368.5 L 530 328.5 L 525 320.5 L 525 314 Q 528.8 314.8 530 311.5 L 531.5 309 L 534 307.5 L 535 300.5 L 538 294.5 L 538 275.5 L 539.5 274 L 545.5 274 L 552 272 L 554 268.5 L 554 263.5 L 546.5 259 L 511 259 L 510 244.5 L 507.5 242 Q 499.8 240.2 498 244.5 L 497 259 L 462.5 259 L 454 263.5 L 454 268.5 L 458.5 273 L 471 275 L 471 294.5 Q 474 297.5 473 304.5 L 480.5 314 L 483 314 L 483 320.5 L 479 328.5 L 479 369.5 Q 481.1 373.1 486 373 L 486 376 L 477 376 L 475.5 372 L 473 370.5 L 473 326.5 L 477 321.5 L 477 317.5 L 472 314 L 472 309 L 469.5 309 L 467 303.5 L 467 292.5 L 465 290.5 L 464 280 Q 457.2 281.1 454 277.5 L 450 270.5 L 450 265.5 Q 453.9 262.5 453 256 Q 460.5 257.8 462.5 253 L 492 253 Q 490.9 245.4 493 242 L 497 240.5 L 498.5 237 L 501.5 236 Z M 595 284 L 594 287 L 589 291 Q 588 297 591 300 L 591 297 L 595 296 L 596 292 Q 601 289 610 290 Q 599 290 595 284 Z " /><path fill="rgb(255,255,255)" stroke="rgb(255,255,255)" stroke-width="1" opacity="0.10588235294117647" d="M 486 274 L 521.5 274 L 523 275.5 L 523 297.5 Q 521.6 303.6 516.5 306 L 491.5 306 L 486 300.5 L 486 274 Z M 491 280 L 491 300 L 517 300 L 519 290 L 518 282 L 517 280 L 491 280 Z " /><path fill="rgb(255,255,255)" stroke="rgb(255,255,255)" stroke-width="1" opacity="0.10588235294117647" d="M 239 277 L 242 277 Q 240.9 279.7 243.5 279 L 246.5 281 L 275.5 281 L 281 282 L 283 285.5 L 283 294.5 L 282 297.5 Q 284.7 299.2 283 305.5 L 282 306.5 L 282 325.5 L 283 326.5 L 283 356.5 Q 280.5 358 282 363.5 L 283 368.5 L 287.5 373 Q 291.7 371.9 290 376 L 281 376 L 281 366.5 Q 276.7 365.3 278 358.5 L 281 355.5 L 281 297 Q 278.3 298.1 279 295.5 L 278 290.5 L 275.5 288 L 246.5 288 Q 244.9 283.8 239 285 L 239 277 Z " /><path fill="rgb(255,255,255)" stroke="rgb(255,255,255)" stroke-width="1" opacity="0.10588235294117647" d="M 656.5 280 L 661 280 L 661 285 L 657 285 L 657 286.5 Q 655.3 290.3 649 289.5 L 661 291 L 661 297 L 656.5 297 Q 654.8 294.2 648.5 296 L 639 287.5 L 638 284.5 Q 643.3 280.3 654.5 282 L 656.5 280 Z " /><path fill="rgb(255,255,255)" stroke="rgb(255,255,255)" stroke-width="1" opacity="0.10588235294117647" d="M 246.5 290 L 259.5 291 L 271 300.5 L 271 302.5 L 275 306.5 L 275 372 L 271 373 L 270.5 376 L 254 376 Q 254.8 372.6 252 371.5 L 252 315.5 L 250.5 314 L 239 314 L 239 307 L 244.5 309 L 254.5 309 L 257 311.5 L 257 369.5 L 259.5 373 Q 268 375 270 370.5 L 270 308.5 L 264.5 301 L 256.5 296 L 245.5 296 L 243 297 L 242 302 L 239 302 L 239 293 L 246.5 290 Z " /><path fill="rgb(255,255,255)" stroke="rgb(255,255,255)" stroke-width="1" opacity="0.10588235294117647" d="M 313.5 291 L 320.5 291 L 328 298.5 L 329 300.5 L 329 353.5 L 330.5 355 Q 336.8 353.8 338 357.5 Q 337.1 360.5 341.5 359 Q 345 360 344 365.5 L 347 368.5 Q 342.8 370.1 344 376 L 336 376 L 336 373 L 339 371.5 L 340 368.5 L 335.5 362 L 325.5 361 L 324 359.5 L 324 302.5 L 320.5 298 L 314.5 297 L 311 302.5 L 311 364.5 L 313.5 368 Q 315.8 367.3 315 369.5 Q 317.1 373.9 323 373 L 322.5 376 L 313 376 L 311.5 373 Q 309.3 373.8 310 371.5 L 306 366.5 L 306 298.5 L 311 294.5 L 313.5 291 Z " /><path fill="rgb(255,255,255)" stroke="rgb(255,255,255)" stroke-width="1" opacity="0.10588235294117647" d="M 629.5 296 L 632.5 300 Q 634.8 299.3 634 301.5 Q 635.2 304.8 639 304 Q 640.3 307 636.5 306 L 631 310.5 L 630 313.5 L 630 365.5 L 632.5 372 L 638 373 L 638 376 L 629 376 L 629 373 L 624 373 L 624 376 L 615 376 Q 613.3 371.9 617.5 373 L 622 370.5 L 624 365 Q 626.7 366.1 626 363.5 L 628 359.5 L 628 313.5 L 621.5 306 L 618 304.5 L 623 303 L 624 299 Q 628.2 299.7 629.5 296 Z " /><path fill="rgb(255,255,255)" stroke="rgb(255,255,255)" stroke-width="1" opacity="0.10588235294117647" d="M 403 300 L 417.5 300 L 418 301.5 L 419 305.5 Q 417.8 308.2 416.5 306 Q 411 305 410 308.5 Q 407.5 314 409 323.5 L 407.5 325 Q 403 325.5 403 324.5 L 403 300 Z " /><path fill="rgb(255,255,255)" stroke="rgb(255,255,255)" stroke-width="1" opacity="0.10588235294117647" d="M 658.5 308 L 661 308 L 661 314 L 649.5 314 L 649 317.5 L 648 318.5 L 648 373 Q 644.7 371.9 646 376 L 639 376 L 643 370.5 L 643 309 L 657.5 309 L 658.5 308 Z " /><path fill="rgb(255,255,255)" stroke="rgb(255,255,255)" stroke-width="1" opacity="0.10588235294117647" d="M 500.5 319 L 507.5 319 L 513 324.5 L 516 329.5 Q 514.3 335.8 517 337.5 L 517 370.5 L 521 376 L 513.5 376 L 513 374.5 L 511 369.5 L 511 336.5 L 509 334.5 L 509 329.5 Q 506 328.3 507 324 L 501 324 L 501 328.5 L 499 333.5 L 499 364.5 L 497 366.5 L 496 376 L 487.5 376 L 487 374.5 L 491 370.5 L 492 365.5 L 492 333.5 L 495 324.5 L 500.5 319 Z " /><path fill="rgb(255,255,255)" stroke="rgb(255,255,255)" stroke-width="1" opacity="0.10588235294117647" d="M 421.5 339 L 430.5 340 L 432 341.5 L 433.5 345 Q 436.8 343.9 436 346.5 L 437 347.5 L 437 372 L 433 373 L 432.5 376 L 416 376 L 413 369.5 L 413 347.5 L 415.5 344 Q 419.3 345.3 418 341.5 L 421.5 339 Z M 422 345 L 419 348 L 419 371 L 422 373 L 430 372 L 432 368 Q 434 355 431 348 Q 428 344 422 345 Z " /><path fill="rgb(255,255,255)" stroke="rgb(255,255,255)" stroke-width="1" opacity="0.9568627450980393" d="M 436 0 Q 439.8 -1 441 1.5 L 441 69.5 L 442 70.5 L 442 82.5 L 441 83.5 L 441 97.5 L 433.5 107 L 431 108.5 L 355 186.5 L 355 188 L 351 190.5 L 349.5 193 L 344.5 196 L 342 192.5 L 342 98.5 L 348.5 90 Q 350.8 90.8 350 88.5 L 358.5 80 L 360 80 L 360 78.5 L 395.5 42 L 398 40.5 L 432.5 4 L 436 1.5 L 436 0 Z M 424 33 L 416 42 L 407 49 L 407 51 L 370 88 Q 371 90 369 89 L 357 102 L 357 160 L 360 163 L 382 139 L 385 137 L 387 134 L 390 132 L 392 129 L 396 126 L 400 121 Q 402 122 401 120 L 415 107 L 426 95 L 428 89 L 427 86 L 427 43 L 429 35 Q 428 32 424 33 Z " /><path fill="rgb(255,255,255)" stroke="rgb(255,255,255)" stroke-width="1" opacity="0.9568627450980393" d="M 451.5 0 L 453.5 0 L 460 5.5 L 461.5 8 L 464 9.5 L 466.5 13 L 469 14.5 L 471.5 18 L 474 19.5 L 476.5 23 L 479 24.5 L 481.5 28 L 484 29.5 L 486.5 33 Q 488.8 32.3 488 34.5 L 493 38 L 496.5 43 Q 498.8 42.3 498 44.5 L 503 48 L 503 49.5 L 529.5 77 L 543 89.5 L 545.5 93 Q 548.1 92.2 547 95.5 L 549 99.5 L 549 191.5 L 545.5 196 L 535.5 185 L 533 183.5 L 530.5 180 L 528 178.5 L 525.5 175 L 523 173.5 L 520.5 170 L 518 168.5 L 515.5 165 Q 513.3 165.8 514 163.5 L 477.5 126 L 474 123.5 L 472.5 121 L 469 118.5 L 467.5 116 L 464 113.5 L 462.5 111 L 460 109.5 L 457.5 106 L 455 104.5 L 450 98.5 L 450 1.5 L 451.5 0 Z M 467 33 L 465 35 L 465 85 L 464 86 L 465 95 L 485 115 Q 484 117 487 116 L 489 120 L 492 121 L 494 125 L 497 126 L 499 130 L 504 134 Q 503 136 506 135 L 509 140 L 512 141 L 513 144 L 517 146 L 518 149 L 521 150 L 523 154 L 526 155 L 531 161 L 534 159 L 534 103 L 532 99 L 508 75 L 508 73 L 503 70 Q 504 67 502 68 L 498 63 L 493 60 Q 494 57 492 58 L 487 52 Q 484 53 485 51 L 481 47 L 477 42 Q 474 43 475 41 L 467 33 Z " /><path fill="rgb(255,255,255)" stroke="rgb(255,255,255)" stroke-width="1" opacity="0.9568627450980393" d="M 285.5 243 Q 286.8 245.3 291.5 244 L 293 245.5 L 291 252 L 246.5 252 L 244 249.5 L 243 245 L 245.5 244 L 284.5 244 L 285.5 243 Z " /><path fill="rgb(255,255,255)" stroke="rgb(255,255,255)" stroke-width="1" opacity="0.9568627450980393" d="M 334.5 244 L 337 245 L 339 249.5 L 340 260.5 L 337 272.5 L 332.5 277 L 330.5 278 L 315.5 278 L 310.5 279 L 305 275.5 Q 304.3 273.3 306.5 274 L 309.5 272 L 325.5 272 L 332 265.5 L 332 247.5 L 334.5 244 Z " /><path fill="rgb(255,255,255)" stroke="rgb(255,255,255)" stroke-width="1" opacity="0.9568627450980393" d="M 397.5 244 L 401 246.5 Q 400 252 403.5 253 L 432.5 253 L 435 254 Q 435.8 259 432.5 261 L 408.5 261 L 403.5 262 L 401 264.5 Q 400.4 269.6 403.5 271 L 432.5 272 L 435 274.5 L 433.5 278 L 431.5 279 L 403.5 279 L 402 280.5 L 401 285.5 L 402 288 L 413.5 288 L 414.5 289 L 440.5 289 L 444 291.5 L 445 295.5 L 443.5 297 L 431.5 298 L 430 299.5 L 432 305 L 435.5 307 L 444 308 L 445 314.5 Q 443.5 318.5 436.5 317 L 426 309.5 L 418.5 298 L 402.5 298 L 400 299 L 401 302.5 L 401 324.5 L 403.5 327 L 410 326 Q 412.4 322.1 411 312.5 L 413.5 309 L 419 311.5 L 420 313.5 L 420 324.5 L 412.5 333 L 408.5 336 L 403.5 336 L 401 338.5 L 401 368.5 L 398.5 371 Q 393.4 371.6 392 368.5 L 392 304.5 L 395 300.5 L 391.5 298 L 376.5 298 L 373 300.5 L 370 308 Q 367.3 306.9 368 309.5 L 359.5 316 L 353.5 317 L 349 314.5 Q 349.3 309.8 352.5 308 L 359.5 307 L 362 304.5 L 365 299 L 356.5 297 L 354.5 298 L 349 296 L 353.5 289 L 388.5 289 L 392 286.5 Q 392.8 280.7 389.5 279 L 363.5 279 L 358 275.5 L 362.5 272 L 373.5 272 L 375.5 271 L 376.5 272 L 388.5 272 Q 392.7 270.7 392 264.5 L 391 262 L 388.5 261 L 363.5 261 L 358 256.5 L 359.5 254 L 362.5 253 L 389.5 253 L 392 250.5 L 394.5 245 L 397.5 244 Z " /><path fill="rgb(255,255,255)" stroke="rgb(255,255,255)" stroke-width="1" opacity="0.9568627450980393" d="M 501.5 244 Q 506.8 242.8 508 245.5 Q 510.4 250.6 509 259.5 L 510 262 L 546.5 262 L 550.5 263 L 553 265.5 L 547.5 270 Q 538.1 268.6 535 273.5 L 534 275.5 L 535 276.5 L 535 291.5 L 534 292.5 L 533 304.5 L 526.5 312 L 523 314.5 L 523 320.5 L 528 330.5 L 528 365.5 L 525.5 370 L 520.5 371 L 519 369.5 Q 520.3 364.8 518 363.5 L 518 327.5 L 510.5 318 L 500.5 317 L 494 321.5 L 490 328.5 L 490 364.5 L 487.5 371 L 483 370 L 482 367.5 L 482 329.5 L 485 321.5 L 485 314.5 L 480 310.5 L 475 303.5 L 474 298.5 L 474 274.5 L 470.5 271 L 463.5 270 L 461.5 270 L 456 266.5 Q 454.9 263.2 457.5 264 L 462.5 262 L 498 262 Q 500.3 258.4 499 249.5 L 501.5 244 Z M 519 270 L 518 271 L 487 271 L 483 276 L 484 279 L 484 294 L 483 295 L 485 304 L 490 307 L 508 307 L 509 308 L 515 308 L 522 306 L 526 297 L 526 281 L 527 280 L 526 274 L 522 270 L 519 270 Z " /><path fill="rgb(255,255,255)" stroke="rgb(255,255,255)" stroke-width="1" opacity="0.9568627450980393" d="M 574.5 244 L 578 245 Q 581.3 249.9 580 260.5 L 581.5 262 L 587 264.5 Q 589.7 268.3 588 276.5 L 587 281.5 Q 580.4 285.9 579 295.5 L 583.5 303 L 586 304.5 L 588 310.5 L 588 358.5 L 585.5 362 L 579 366.5 Q 579.5 370.5 576.5 371 Q 572.5 371.5 572 368.5 L 569.5 363 Q 564.8 362.8 563 359.5 L 563 308.5 L 565 304 L 568 302.5 L 572 296.5 L 572 290.5 L 563 280.5 L 563 265.5 L 571 260.5 Q 573.7 256.7 572 248.5 L 574.5 244 Z " /><path fill="rgb(255,255,255)" stroke="rgb(255,255,255)" stroke-width="1" opacity="0.9568627450980393" d="M 644.5 244 Q 649.8 242.8 651 245.5 L 651 251.5 L 643.5 259 L 633 263 L 632 266.5 L 637.5 271 L 648.5 271 L 661 274 Q 662.8 278.5 657.5 277 L 653.5 279 L 638.5 279 L 637 280.5 L 636 286.5 L 640.5 293 L 643 294.5 Q 642.3 296.8 644.5 296 Q 647.5 299 654.5 298 L 658 301.5 Q 657.2 304.5 661 303 L 661 306 L 647.5 307 L 636 301 L 634.5 298 L 632 296.5 L 629.5 293 L 627 294.5 L 625.5 297 L 610.5 307 L 601.5 307 L 598 304.5 L 601 299 Q 603.4 297.3 609.5 298 L 620 291 L 622 283.5 L 619.5 279 L 603.5 279 L 598 275.5 L 602.5 272 L 618.5 272 L 625 266.5 L 623.5 263 Q 620.2 259.8 612.5 261 L 608 257.5 Q 606.5 253.1 609.5 254 L 610.5 253 L 638.5 253 L 641 250.5 Q 641.3 245.8 644.5 244 Z " /><path fill="rgb(255,255,255)" stroke="rgb(255,255,255)" stroke-width="1" opacity="0.9568627450980393" d="M 246.5 272 L 282.5 272 Q 289.1 272.9 292 277.5 L 294 284.5 L 294 368.5 L 290.5 372 L 288.5 370 Q 285.9 370.8 287 367.5 L 286 366.5 L 286 322.5 L 285 321.5 L 285 309.5 L 286 308.5 L 286 284.5 L 281.5 279 L 277.5 278 L 245.5 278 L 243 275.5 L 246.5 272 Z " /><path fill="rgb(255,255,255)" stroke="rgb(255,255,255)" stroke-width="1" opacity="0.9568627450980393" d="M 245 299 L 256.5 299 L 268 308.5 L 268 369.5 L 266.5 371 Q 260.5 372.5 259 369.5 L 259 311.5 L 256.5 308 Q 253 305.5 245.5 307 L 243 304.5 L 245 299 Z " /><path fill="rgb(255,255,255)" stroke="rgb(255,255,255)" stroke-width="1" opacity="0.9568627450980393" d="M 314 301 Q 320.3 299.5 322 303.5 L 322 359.5 L 324 364 Q 327.5 365.7 334.5 365 L 337 367.5 Q 337.5 371.5 334.5 372 Q 322.4 373.6 317 368.5 L 313 363.5 L 313 303.5 L 314 301 Z " /><path fill="rgb(255,255,255)" stroke="rgb(255,255,255)" stroke-width="1" opacity="0.9568627450980393" d="M 619.5 308 L 626 315.5 L 626 356.5 L 621 367.5 L 618.5 370 L 613.5 372 L 608 369.5 L 609.5 366 L 616 360.5 L 617 358.5 L 617 311.5 L 619.5 308 Z " /><path fill="rgb(255,255,255)" stroke="rgb(255,255,255)" stroke-width="1" opacity="0.9568627450980393" d="M 638.5 308 L 641 311.5 L 641 369.5 Q 640.3 371.8 636.5 371 L 634 370 L 633 367.5 L 633 348.5 L 632 347.5 L 632 320.5 Q 634.5 319 633 313.5 L 638.5 308 Z " /><path fill="rgb(255,255,255)" stroke="rgb(255,255,255)" stroke-width="1" opacity="0.9568627450980393" d="M 378.5 309 L 382 311.5 L 384 314.5 L 384 329.5 L 379.5 335 L 377 333.5 L 376 330.5 L 376 313.5 L 378.5 309 Z " /><path fill="rgb(255,255,255)" stroke="rgb(255,255,255)" stroke-width="1" opacity="0.9568627450980393" d="M 368.5 347 L 375 348 Q 377.2 354.8 376 366.5 L 375 370 L 368.5 371 L 367 369.5 L 367 348.5 L 368.5 347 Z " /><path fill="rgb(255,255,255)" stroke="rgb(255,255,255)" stroke-width="1" opacity="0.9568627450980393" d="M 422.5 347 L 428 348 Q 431.4 353.3 430 364.5 L 427.5 370 L 422.5 371 L 421 369.5 L 421 348.5 L 422.5 347 Z " /></svg>